<mxfile host="Electron" modified="2024-02-26T04:41:00.191Z" agent="Mozilla/5.0 (Windows NT 10.0; Win64; x64) AppleWebKit/537.36 (KHTML, like Gecko) draw.io/23.1.5 Chrome/120.0.6099.109 Electron/28.1.0 Safari/537.36" etag="MMFdDITnq7yynL5bxIk7" version="23.1.5" type="device">
  <diagram name="Page-1" id="2YBvvXClWsGukQMizWep">
    <mxGraphModel dx="1688" dy="683" grid="1" gridSize="10" guides="1" tooltips="1" connect="1" arrows="1" fold="1" page="1" pageScale="1" pageWidth="850" pageHeight="1100" math="0" shadow="0">
      <root>
        <mxCell id="0" />
        <mxCell id="1" parent="0" />
        <mxCell id="w-taxXMvqzNIHzTgpBOw-1" value="Actor" style="shape=umlActor;verticalLabelPosition=bottom;verticalAlign=top;html=1;outlineConnect=0;" vertex="1" parent="1">
          <mxGeometry x="37.5" y="40" width="30" height="60" as="geometry" />
        </mxCell>
        <mxCell id="w-taxXMvqzNIHzTgpBOw-4" value="" style="group" vertex="1" connectable="0" parent="1">
          <mxGeometry x="110.09" y="50" width="120" height="60" as="geometry" />
        </mxCell>
        <mxCell id="w-taxXMvqzNIHzTgpBOw-2" value="" style="rounded=0;whiteSpace=wrap;html=1;" vertex="1" parent="w-taxXMvqzNIHzTgpBOw-4">
          <mxGeometry width="120" height="60" as="geometry" />
        </mxCell>
        <mxCell id="w-taxXMvqzNIHzTgpBOw-3" value="Реестр кодировки" style="text;html=1;align=center;verticalAlign=middle;whiteSpace=wrap;rounded=0;" vertex="1" parent="w-taxXMvqzNIHzTgpBOw-4">
          <mxGeometry x="30" y="15" width="60" height="30" as="geometry" />
        </mxCell>
        <mxCell id="w-taxXMvqzNIHzTgpBOw-5" value="" style="group" vertex="1" connectable="0" parent="1">
          <mxGeometry x="347.5" y="50" width="120" height="60" as="geometry" />
        </mxCell>
        <mxCell id="w-taxXMvqzNIHzTgpBOw-6" value="" style="rounded=0;whiteSpace=wrap;html=1;" vertex="1" parent="w-taxXMvqzNIHzTgpBOw-5">
          <mxGeometry width="120" height="60" as="geometry" />
        </mxCell>
        <mxCell id="w-taxXMvqzNIHzTgpBOw-7" value="Реестр объектов" style="text;html=1;align=center;verticalAlign=middle;whiteSpace=wrap;rounded=0;" vertex="1" parent="w-taxXMvqzNIHzTgpBOw-5">
          <mxGeometry x="30" y="15" width="60" height="30" as="geometry" />
        </mxCell>
        <mxCell id="w-taxXMvqzNIHzTgpBOw-8" value="" style="group" vertex="1" connectable="0" parent="1">
          <mxGeometry x="580" y="50" width="120" height="60" as="geometry" />
        </mxCell>
        <mxCell id="w-taxXMvqzNIHzTgpBOw-9" value="" style="rounded=0;whiteSpace=wrap;html=1;" vertex="1" parent="w-taxXMvqzNIHzTgpBOw-8">
          <mxGeometry width="120" height="60" as="geometry" />
        </mxCell>
        <mxCell id="w-taxXMvqzNIHzTgpBOw-10" value="Реестр зон" style="text;html=1;align=center;verticalAlign=middle;whiteSpace=wrap;rounded=0;" vertex="1" parent="w-taxXMvqzNIHzTgpBOw-8">
          <mxGeometry x="30" y="15" width="60" height="30" as="geometry" />
        </mxCell>
        <mxCell id="w-taxXMvqzNIHzTgpBOw-11" value="" style="endArrow=none;dashed=1;html=1;dashPattern=1 3;strokeWidth=2;rounded=0;entryX=0.5;entryY=1;entryDx=0;entryDy=0;" edge="1" parent="1" source="w-taxXMvqzNIHzTgpBOw-26" target="w-taxXMvqzNIHzTgpBOw-2">
          <mxGeometry width="50" height="50" relative="1" as="geometry">
            <mxPoint x="200" y="630" as="sourcePoint" />
            <mxPoint x="480" y="180" as="targetPoint" />
          </mxGeometry>
        </mxCell>
        <mxCell id="w-taxXMvqzNIHzTgpBOw-12" value="" style="endArrow=none;dashed=1;html=1;dashPattern=1 3;strokeWidth=2;rounded=0;entryX=0.5;entryY=1;entryDx=0;entryDy=0;" edge="1" parent="1" source="w-taxXMvqzNIHzTgpBOw-38" target="w-taxXMvqzNIHzTgpBOw-6">
          <mxGeometry width="50" height="50" relative="1" as="geometry">
            <mxPoint x="470" y="630" as="sourcePoint" />
            <mxPoint x="469.5" y="120" as="targetPoint" />
          </mxGeometry>
        </mxCell>
        <mxCell id="w-taxXMvqzNIHzTgpBOw-13" value="" style="endArrow=none;dashed=1;html=1;dashPattern=1 3;strokeWidth=2;rounded=0;entryX=0.5;entryY=1;entryDx=0;entryDy=0;" edge="1" parent="1" target="w-taxXMvqzNIHzTgpBOw-9">
          <mxGeometry width="50" height="50" relative="1" as="geometry">
            <mxPoint x="640" y="1030" as="sourcePoint" />
            <mxPoint x="690" y="150" as="targetPoint" />
          </mxGeometry>
        </mxCell>
        <mxCell id="w-taxXMvqzNIHzTgpBOw-14" value="" style="rounded=0;whiteSpace=wrap;html=1;" vertex="1" parent="1">
          <mxGeometry x="45" y="120" width="15" height="860" as="geometry" />
        </mxCell>
        <mxCell id="w-taxXMvqzNIHzTgpBOw-19" value="" style="group" vertex="1" connectable="0" parent="1">
          <mxGeometry x="60" y="130" width="100" height="20" as="geometry" />
        </mxCell>
        <mxCell id="w-taxXMvqzNIHzTgpBOw-15" value="" style="endArrow=classic;html=1;rounded=0;exitX=1.2;exitY=0.025;exitDx=0;exitDy=0;exitPerimeter=0;" edge="1" parent="w-taxXMvqzNIHzTgpBOw-19">
          <mxGeometry width="50" height="50" relative="1" as="geometry">
            <mxPoint y="19.333333333333332" as="sourcePoint" />
            <mxPoint x="100" y="19.333333333333332" as="targetPoint" />
          </mxGeometry>
        </mxCell>
        <mxCell id="w-taxXMvqzNIHzTgpBOw-16" value="Создать реестр" style="text;html=1;align=center;verticalAlign=middle;whiteSpace=wrap;rounded=0;" vertex="1" parent="w-taxXMvqzNIHzTgpBOw-19">
          <mxGeometry width="92.59" height="20" as="geometry" />
        </mxCell>
        <mxCell id="w-taxXMvqzNIHzTgpBOw-28" value="" style="endArrow=none;dashed=1;html=1;dashPattern=1 3;strokeWidth=2;rounded=0;" edge="1" parent="1" source="w-taxXMvqzNIHzTgpBOw-33">
          <mxGeometry width="50" height="50" relative="1" as="geometry">
            <mxPoint x="170.57615894039736" y="240" as="sourcePoint" />
            <mxPoint x="170" y="450" as="targetPoint" />
            <Array as="points">
              <mxPoint x="170" y="480" />
            </Array>
          </mxGeometry>
        </mxCell>
        <mxCell id="w-taxXMvqzNIHzTgpBOw-26" value="" style="rounded=0;whiteSpace=wrap;html=1;" vertex="1" parent="1">
          <mxGeometry x="162.59" y="130" width="15" height="110" as="geometry" />
        </mxCell>
        <mxCell id="w-taxXMvqzNIHzTgpBOw-21" value="" style="endArrow=none;html=1;rounded=0;exitX=1.2;exitY=0.025;exitDx=0;exitDy=0;exitPerimeter=0;endFill=0;startArrow=classic;startFill=1;entryX=0.919;entryY=1.024;entryDx=0;entryDy=0;entryPerimeter=0;" edge="1" parent="1" target="w-taxXMvqzNIHzTgpBOw-22">
          <mxGeometry width="50" height="50" relative="1" as="geometry">
            <mxPoint x="62.5" y="230" as="sourcePoint" />
            <mxPoint x="190" y="230" as="targetPoint" />
          </mxGeometry>
        </mxCell>
        <mxCell id="w-taxXMvqzNIHzTgpBOw-22" value="Успешно" style="text;html=1;align=center;verticalAlign=middle;whiteSpace=wrap;rounded=0;" vertex="1" parent="1">
          <mxGeometry x="60" y="210" width="110" height="20" as="geometry" />
        </mxCell>
        <mxCell id="w-taxXMvqzNIHzTgpBOw-35" value="" style="group" vertex="1" connectable="0" parent="1">
          <mxGeometry x="60" y="250" width="110" height="30" as="geometry" />
        </mxCell>
        <mxCell id="w-taxXMvqzNIHzTgpBOw-36" value="" style="endArrow=classic;html=1;rounded=0;exitX=1.2;exitY=0.025;exitDx=0;exitDy=0;exitPerimeter=0;" edge="1" parent="w-taxXMvqzNIHzTgpBOw-35">
          <mxGeometry width="50" height="50" relative="1" as="geometry">
            <mxPoint y="29" as="sourcePoint" />
            <mxPoint x="99.99999999999999" y="29" as="targetPoint" />
          </mxGeometry>
        </mxCell>
        <mxCell id="w-taxXMvqzNIHzTgpBOw-37" value="Заполнить реестр" style="text;html=1;align=center;verticalAlign=middle;whiteSpace=wrap;rounded=0;" vertex="1" parent="w-taxXMvqzNIHzTgpBOw-35">
          <mxGeometry width="109.99999999999999" height="30" as="geometry" />
        </mxCell>
        <mxCell id="w-taxXMvqzNIHzTgpBOw-39" value="" style="endArrow=none;dashed=1;html=1;dashPattern=1 3;strokeWidth=2;rounded=0;entryX=0.5;entryY=1;entryDx=0;entryDy=0;" edge="1" parent="1" target="w-taxXMvqzNIHzTgpBOw-38">
          <mxGeometry width="50" height="50" relative="1" as="geometry">
            <mxPoint x="408" y="1030" as="sourcePoint" />
            <mxPoint x="460" y="351" as="targetPoint" />
          </mxGeometry>
        </mxCell>
        <mxCell id="w-taxXMvqzNIHzTgpBOw-38" value="" style="rounded=0;whiteSpace=wrap;html=1;" vertex="1" parent="1">
          <mxGeometry x="400" y="280" width="15" height="70" as="geometry" />
        </mxCell>
        <mxCell id="w-taxXMvqzNIHzTgpBOw-45" value="" style="endArrow=none;html=1;rounded=0;endFill=0;startArrow=classic;startFill=1;" edge="1" parent="1">
          <mxGeometry width="50" height="50" relative="1" as="geometry">
            <mxPoint x="180" y="340" as="sourcePoint" />
            <mxPoint x="400" y="340" as="targetPoint" />
          </mxGeometry>
        </mxCell>
        <mxCell id="w-taxXMvqzNIHzTgpBOw-46" value="Объекты из реестра" style="text;html=1;align=center;verticalAlign=middle;whiteSpace=wrap;rounded=0;" vertex="1" parent="1">
          <mxGeometry x="281.57" y="315" width="118.42879999999998" height="30" as="geometry" />
        </mxCell>
        <mxCell id="w-taxXMvqzNIHzTgpBOw-47" value="Успешно" style="text;html=1;align=center;verticalAlign=middle;whiteSpace=wrap;rounded=0;" vertex="1" parent="1">
          <mxGeometry x="56.34" y="410" width="110" height="20" as="geometry" />
        </mxCell>
        <mxCell id="w-taxXMvqzNIHzTgpBOw-51" value="" style="endArrow=none;html=1;rounded=0;endFill=0;startArrow=classic;startFill=1;" edge="1" parent="1">
          <mxGeometry width="50" height="50" relative="1" as="geometry">
            <mxPoint x="60" y="430" as="sourcePoint" />
            <mxPoint x="160" y="430" as="targetPoint" />
          </mxGeometry>
        </mxCell>
        <mxCell id="w-taxXMvqzNIHzTgpBOw-53" value="" style="endArrow=none;dashed=1;html=1;dashPattern=1 3;strokeWidth=2;rounded=0;entryX=0.5;entryY=1;entryDx=0;entryDy=0;" edge="1" parent="1" target="w-taxXMvqzNIHzTgpBOw-52">
          <mxGeometry width="50" height="50" relative="1" as="geometry">
            <mxPoint x="170" y="1030" as="sourcePoint" />
            <mxPoint x="190" y="511" as="targetPoint" />
          </mxGeometry>
        </mxCell>
        <mxCell id="w-taxXMvqzNIHzTgpBOw-52" value="" style="rounded=0;whiteSpace=wrap;html=1;" vertex="1" parent="1">
          <mxGeometry x="162.59" y="472" width="15" height="498" as="geometry" />
        </mxCell>
        <mxCell id="w-taxXMvqzNIHzTgpBOw-54" value="" style="group" vertex="1" connectable="0" parent="1">
          <mxGeometry x="60" y="470" width="110" height="30" as="geometry" />
        </mxCell>
        <mxCell id="w-taxXMvqzNIHzTgpBOw-55" value="" style="endArrow=classic;html=1;rounded=0;exitX=1.2;exitY=0.025;exitDx=0;exitDy=0;exitPerimeter=0;" edge="1" parent="w-taxXMvqzNIHzTgpBOw-54">
          <mxGeometry width="50" height="50" relative="1" as="geometry">
            <mxPoint y="29" as="sourcePoint" />
            <mxPoint x="98.21428571428571" y="29" as="targetPoint" />
          </mxGeometry>
        </mxCell>
        <mxCell id="w-taxXMvqzNIHzTgpBOw-56" value="Отфильтровать реестр" style="text;html=1;align=center;verticalAlign=middle;whiteSpace=wrap;rounded=0;" vertex="1" parent="w-taxXMvqzNIHzTgpBOw-54">
          <mxGeometry width="110" height="30" as="geometry" />
        </mxCell>
        <mxCell id="w-taxXMvqzNIHzTgpBOw-25" value="Получить список зон" style="text;html=1;align=center;verticalAlign=middle;whiteSpace=wrap;rounded=0;" vertex="1" parent="1">
          <mxGeometry x="57.5" y="570" width="102.5" height="10" as="geometry" />
        </mxCell>
        <mxCell id="w-taxXMvqzNIHzTgpBOw-61" value="" style="group" vertex="1" connectable="0" parent="1">
          <mxGeometry x="177.59" y="580" width="452.41" height="30" as="geometry" />
        </mxCell>
        <mxCell id="w-taxXMvqzNIHzTgpBOw-62" value="" style="endArrow=classic;html=1;rounded=0;exitX=1.2;exitY=0.025;exitDx=0;exitDy=0;exitPerimeter=0;" edge="1" parent="w-taxXMvqzNIHzTgpBOw-61">
          <mxGeometry width="50" height="50" relative="1" as="geometry">
            <mxPoint y="29" as="sourcePoint" />
            <mxPoint x="452.41" y="29" as="targetPoint" />
          </mxGeometry>
        </mxCell>
        <mxCell id="w-taxXMvqzNIHzTgpBOw-60" value="Получить список зон" style="text;html=1;align=center;verticalAlign=middle;whiteSpace=wrap;rounded=0;" vertex="1" parent="w-taxXMvqzNIHzTgpBOw-61">
          <mxGeometry x="-2.59" y="10" width="125" height="20" as="geometry" />
        </mxCell>
        <mxCell id="w-taxXMvqzNIHzTgpBOw-63" value="Актуальный список зон" style="text;html=1;align=center;verticalAlign=middle;whiteSpace=wrap;rounded=0;" vertex="1" parent="1">
          <mxGeometry x="494.63" y="640" width="145.37" height="30" as="geometry" />
        </mxCell>
        <mxCell id="w-taxXMvqzNIHzTgpBOw-66" value="" style="endArrow=classic;html=1;rounded=0;exitX=0.945;exitY=0.948;exitDx=0;exitDy=0;exitPerimeter=0;" edge="1" parent="1" source="w-taxXMvqzNIHzTgpBOw-63">
          <mxGeometry width="50" height="50" relative="1" as="geometry">
            <mxPoint x="490" y="671" as="sourcePoint" />
            <mxPoint x="180" y="670" as="targetPoint" />
          </mxGeometry>
        </mxCell>
        <mxCell id="w-taxXMvqzNIHzTgpBOw-68" value="" style="endArrow=classic;html=1;rounded=0;" edge="1" parent="1">
          <mxGeometry width="50" height="50" relative="1" as="geometry">
            <mxPoint x="160" y="694" as="sourcePoint" />
            <mxPoint x="60" y="694" as="targetPoint" />
          </mxGeometry>
        </mxCell>
        <mxCell id="w-taxXMvqzNIHzTgpBOw-69" value="Список зон" style="text;html=1;align=center;verticalAlign=middle;whiteSpace=wrap;rounded=0;" vertex="1" parent="1">
          <mxGeometry x="57.5" y="670" width="102.5" height="20" as="geometry" />
        </mxCell>
        <mxCell id="w-taxXMvqzNIHzTgpBOw-70" value="Список кодов" style="text;html=1;align=center;verticalAlign=middle;whiteSpace=wrap;rounded=0;" vertex="1" parent="1">
          <mxGeometry x="42.5" y="790" width="125" height="30" as="geometry" />
        </mxCell>
        <mxCell id="w-taxXMvqzNIHzTgpBOw-71" value="" style="endArrow=classic;html=1;rounded=0;exitX=0.908;exitY=0.976;exitDx=0;exitDy=0;exitPerimeter=0;" edge="1" parent="1" source="w-taxXMvqzNIHzTgpBOw-70">
          <mxGeometry width="50" height="50" relative="1" as="geometry">
            <mxPoint x="150" y="820" as="sourcePoint" />
            <mxPoint x="60" y="820" as="targetPoint" />
          </mxGeometry>
        </mxCell>
        <mxCell id="w-taxXMvqzNIHzTgpBOw-76" value="Применить зону и код к выборке" style="text;html=1;align=center;verticalAlign=middle;whiteSpace=wrap;rounded=0;" vertex="1" parent="1">
          <mxGeometry x="175.78" y="880" width="112.41" height="30" as="geometry" />
        </mxCell>
        <mxCell id="w-taxXMvqzNIHzTgpBOw-78" value="Результат сохранен" style="text;html=1;align=center;verticalAlign=middle;whiteSpace=wrap;rounded=0;" vertex="1" parent="1">
          <mxGeometry x="171.72" y="940" width="125" height="20" as="geometry" />
        </mxCell>
        <mxCell id="w-taxXMvqzNIHzTgpBOw-79" value="" style="endArrow=none;html=1;rounded=0;exitX=1.172;exitY=0.269;exitDx=0;exitDy=0;exitPerimeter=0;endFill=0;startArrow=classic;startFill=1;" edge="1" parent="1">
          <mxGeometry width="50" height="50" relative="1" as="geometry">
            <mxPoint x="178.43" y="940" as="sourcePoint" />
            <mxPoint x="290" y="940" as="targetPoint" />
          </mxGeometry>
        </mxCell>
        <mxCell id="w-taxXMvqzNIHzTgpBOw-80" value="" style="shape=cylinder3;whiteSpace=wrap;html=1;boundedLbl=1;backgroundOutline=1;size=15;" vertex="1" parent="1">
          <mxGeometry x="270" y="40" width="60" height="80" as="geometry" />
        </mxCell>
        <mxCell id="w-taxXMvqzNIHzTgpBOw-81" value="" style="shape=cylinder3;whiteSpace=wrap;html=1;boundedLbl=1;backgroundOutline=1;size=15;" vertex="1" parent="1">
          <mxGeometry x="494.63" y="40" width="60" height="80" as="geometry" />
        </mxCell>
        <mxCell id="w-taxXMvqzNIHzTgpBOw-82" value="" style="shape=cylinder3;whiteSpace=wrap;html=1;boundedLbl=1;backgroundOutline=1;size=15;" vertex="1" parent="1">
          <mxGeometry x="730" y="40" width="60" height="80" as="geometry" />
        </mxCell>
        <mxCell id="w-taxXMvqzNIHzTgpBOw-83" value="" style="endArrow=none;dashed=1;html=1;dashPattern=1 3;strokeWidth=2;rounded=0;entryX=0.5;entryY=1;entryDx=0;entryDy=0;" edge="1" parent="1">
          <mxGeometry width="50" height="50" relative="1" as="geometry">
            <mxPoint x="760" y="1030" as="sourcePoint" />
            <mxPoint x="760.21" y="120" as="targetPoint" />
          </mxGeometry>
        </mxCell>
        <mxCell id="w-taxXMvqzNIHzTgpBOw-84" value="" style="endArrow=none;dashed=1;html=1;dashPattern=1 3;strokeWidth=2;rounded=0;entryX=0.5;entryY=1;entryDx=0;entryDy=0;" edge="1" parent="1" source="w-taxXMvqzNIHzTgpBOw-96">
          <mxGeometry width="50" height="50" relative="1" as="geometry">
            <mxPoint x="524.34" y="640" as="sourcePoint" />
            <mxPoint x="524.84" y="120" as="targetPoint" />
          </mxGeometry>
        </mxCell>
        <mxCell id="w-taxXMvqzNIHzTgpBOw-85" value="" style="endArrow=none;dashed=1;html=1;dashPattern=1 3;strokeWidth=2;rounded=0;entryX=0.5;entryY=1;entryDx=0;entryDy=0;entryPerimeter=0;" edge="1" parent="1" source="w-taxXMvqzNIHzTgpBOw-89" target="w-taxXMvqzNIHzTgpBOw-80">
          <mxGeometry width="50" height="50" relative="1" as="geometry">
            <mxPoint x="331.63000000000005" y="645" as="sourcePoint" />
            <mxPoint x="332.13000000000005" y="125" as="targetPoint" />
          </mxGeometry>
        </mxCell>
        <mxCell id="w-taxXMvqzNIHzTgpBOw-86" value="" style="group" vertex="1" connectable="0" parent="1">
          <mxGeometry x="180" y="160" width="130" height="20" as="geometry" />
        </mxCell>
        <mxCell id="w-taxXMvqzNIHzTgpBOw-87" value="" style="endArrow=classic;html=1;rounded=0;exitX=1.2;exitY=0.025;exitDx=0;exitDy=0;exitPerimeter=0;" edge="1" parent="w-taxXMvqzNIHzTgpBOw-86">
          <mxGeometry width="50" height="50" relative="1" as="geometry">
            <mxPoint y="9.666666666666666" as="sourcePoint" />
            <mxPoint x="108.33333333333333" y="9.666666666666666" as="targetPoint" />
          </mxGeometry>
        </mxCell>
        <mxCell id="w-taxXMvqzNIHzTgpBOw-90" value="" style="endArrow=none;dashed=1;html=1;dashPattern=1 3;strokeWidth=2;rounded=0;entryX=0.5;entryY=1;entryDx=0;entryDy=0;" edge="1" parent="1" source="w-taxXMvqzNIHzTgpBOw-103">
          <mxGeometry width="50" height="50" relative="1" as="geometry">
            <mxPoint x="299.57000000000005" y="645" as="sourcePoint" />
            <mxPoint x="300.44" y="210" as="targetPoint" />
          </mxGeometry>
        </mxCell>
        <mxCell id="w-taxXMvqzNIHzTgpBOw-89" value="" style="rounded=0;whiteSpace=wrap;html=1;" vertex="1" parent="1">
          <mxGeometry x="292.5" y="150" width="15" height="60" as="geometry" />
        </mxCell>
        <mxCell id="w-taxXMvqzNIHzTgpBOw-91" value="Реестр создан" style="text;html=1;align=center;verticalAlign=middle;whiteSpace=wrap;rounded=0;" vertex="1" parent="1">
          <mxGeometry x="180" y="200" width="118.43" height="20" as="geometry" />
        </mxCell>
        <mxCell id="w-taxXMvqzNIHzTgpBOw-93" value="" style="endArrow=none;html=1;rounded=0;endFill=0;startArrow=classic;startFill=1;" edge="1" parent="1">
          <mxGeometry width="50" height="50" relative="1" as="geometry">
            <mxPoint x="180" y="200.01" as="sourcePoint" />
            <mxPoint x="290" y="200" as="targetPoint" />
          </mxGeometry>
        </mxCell>
        <mxCell id="w-taxXMvqzNIHzTgpBOw-88" value="Создать реестр" style="text;html=1;align=center;verticalAlign=middle;whiteSpace=wrap;rounded=0;" vertex="1" parent="1">
          <mxGeometry x="170" y="150" width="120" height="20" as="geometry" />
        </mxCell>
        <mxCell id="w-taxXMvqzNIHzTgpBOw-95" value="" style="endArrow=none;dashed=1;html=1;dashPattern=1 3;strokeWidth=2;rounded=0;" edge="1" parent="1" target="w-taxXMvqzNIHzTgpBOw-33">
          <mxGeometry width="50" height="50" relative="1" as="geometry">
            <mxPoint x="170.57615894039736" y="240" as="sourcePoint" />
            <mxPoint x="170" y="361" as="targetPoint" />
          </mxGeometry>
        </mxCell>
        <mxCell id="w-taxXMvqzNIHzTgpBOw-33" value="" style="rounded=0;whiteSpace=wrap;html=1;" vertex="1" parent="1">
          <mxGeometry x="162.59" y="260" width="15" height="180" as="geometry" />
        </mxCell>
        <mxCell id="w-taxXMvqzNIHzTgpBOw-97" value="" style="group" vertex="1" connectable="0" parent="1">
          <mxGeometry x="420" y="270" width="90" height="20" as="geometry" />
        </mxCell>
        <mxCell id="w-taxXMvqzNIHzTgpBOw-98" value="" style="endArrow=classic;html=1;rounded=0;exitX=1.2;exitY=0.025;exitDx=0;exitDy=0;exitPerimeter=0;" edge="1" parent="w-taxXMvqzNIHzTgpBOw-97">
          <mxGeometry width="50" height="50" relative="1" as="geometry">
            <mxPoint y="19.333333333333332" as="sourcePoint" />
            <mxPoint x="90" y="19.333333333333332" as="targetPoint" />
          </mxGeometry>
        </mxCell>
        <mxCell id="w-taxXMvqzNIHzTgpBOw-99" value="Запрос" style="text;html=1;align=center;verticalAlign=middle;whiteSpace=wrap;rounded=0;" vertex="1" parent="w-taxXMvqzNIHzTgpBOw-97">
          <mxGeometry x="7.199999999999999" width="76.13279999999999" height="20" as="geometry" />
        </mxCell>
        <mxCell id="w-taxXMvqzNIHzTgpBOw-100" value="" style="endArrow=none;dashed=1;html=1;dashPattern=1 3;strokeWidth=2;rounded=0;entryX=0.5;entryY=1;entryDx=0;entryDy=0;" edge="1" parent="1" target="w-taxXMvqzNIHzTgpBOw-96">
          <mxGeometry width="50" height="50" relative="1" as="geometry">
            <mxPoint x="525" y="1030" as="sourcePoint" />
            <mxPoint x="524.84" y="120" as="targetPoint" />
          </mxGeometry>
        </mxCell>
        <mxCell id="w-taxXMvqzNIHzTgpBOw-96" value="" style="rounded=0;whiteSpace=wrap;html=1;" vertex="1" parent="1">
          <mxGeometry x="517.13" y="280" width="15" height="50" as="geometry" />
        </mxCell>
        <mxCell id="w-taxXMvqzNIHzTgpBOw-101" value="Выборка" style="text;html=1;align=center;verticalAlign=middle;whiteSpace=wrap;rounded=0;" vertex="1" parent="1">
          <mxGeometry x="405.79" y="295" width="118.43" height="20" as="geometry" />
        </mxCell>
        <mxCell id="w-taxXMvqzNIHzTgpBOw-102" value="" style="endArrow=none;html=1;rounded=0;exitX=1.2;exitY=0.025;exitDx=0;exitDy=0;exitPerimeter=0;endFill=0;startArrow=classic;startFill=1;" edge="1" parent="1">
          <mxGeometry width="50" height="50" relative="1" as="geometry">
            <mxPoint x="415" y="315" as="sourcePoint" />
            <mxPoint x="510" y="315" as="targetPoint" />
          </mxGeometry>
        </mxCell>
        <mxCell id="w-taxXMvqzNIHzTgpBOw-42" value="" style="endArrow=classic;html=1;rounded=0;entryX=-0.152;entryY=0.149;entryDx=0;entryDy=0;entryPerimeter=0;" edge="1" parent="1">
          <mxGeometry width="50" height="50" relative="1" as="geometry">
            <mxPoint x="180" y="290" as="sourcePoint" />
            <mxPoint x="400.0000000000002" y="291.71000000000004" as="targetPoint" />
          </mxGeometry>
        </mxCell>
        <mxCell id="w-taxXMvqzNIHzTgpBOw-43" value="Получить объекты" style="text;html=1;align=center;verticalAlign=middle;whiteSpace=wrap;rounded=0;" vertex="1" parent="1">
          <mxGeometry x="140.1428" y="270" width="188.14106719999995" height="20" as="geometry" />
        </mxCell>
        <mxCell id="w-taxXMvqzNIHzTgpBOw-104" value="" style="endArrow=none;dashed=1;html=1;dashPattern=1 3;strokeWidth=2;rounded=0;entryX=0.5;entryY=1;entryDx=0;entryDy=0;" edge="1" parent="1" source="w-taxXMvqzNIHzTgpBOw-130" target="w-taxXMvqzNIHzTgpBOw-103">
          <mxGeometry width="50" height="50" relative="1" as="geometry">
            <mxPoint x="300" y="810" as="sourcePoint" />
            <mxPoint x="300.44" y="210" as="targetPoint" />
          </mxGeometry>
        </mxCell>
        <mxCell id="w-taxXMvqzNIHzTgpBOw-103" value="" style="rounded=0;whiteSpace=wrap;html=1;" vertex="1" parent="1">
          <mxGeometry x="292.5" y="360" width="15" height="60" as="geometry" />
        </mxCell>
        <mxCell id="w-taxXMvqzNIHzTgpBOw-105" value="Сохранить объекты" style="text;html=1;align=center;verticalAlign=middle;whiteSpace=wrap;rounded=0;" vertex="1" parent="1">
          <mxGeometry x="178.43" y="360" width="111.57" height="20" as="geometry" />
        </mxCell>
        <mxCell id="w-taxXMvqzNIHzTgpBOw-106" value="" style="group" vertex="1" connectable="0" parent="1">
          <mxGeometry x="180" y="370" width="130" height="20" as="geometry" />
        </mxCell>
        <mxCell id="w-taxXMvqzNIHzTgpBOw-107" value="" style="endArrow=classic;html=1;rounded=0;exitX=1.2;exitY=0.025;exitDx=0;exitDy=0;exitPerimeter=0;" edge="1" parent="w-taxXMvqzNIHzTgpBOw-106">
          <mxGeometry width="50" height="50" relative="1" as="geometry">
            <mxPoint y="9.666666666666666" as="sourcePoint" />
            <mxPoint x="108.33333333333333" y="9.666666666666666" as="targetPoint" />
          </mxGeometry>
        </mxCell>
        <mxCell id="w-taxXMvqzNIHzTgpBOw-109" value="" style="endArrow=none;html=1;rounded=0;endFill=0;startArrow=classic;startFill=1;" edge="1" parent="1">
          <mxGeometry width="50" height="50" relative="1" as="geometry">
            <mxPoint x="178.43" y="410" as="sourcePoint" />
            <mxPoint x="290" y="410" as="targetPoint" />
            <Array as="points">
              <mxPoint x="228.43" y="410" />
            </Array>
          </mxGeometry>
        </mxCell>
        <mxCell id="w-taxXMvqzNIHzTgpBOw-112" value="Записи добавлены" style="text;html=1;align=center;verticalAlign=middle;whiteSpace=wrap;rounded=0;" vertex="1" parent="1">
          <mxGeometry x="182.5" y="390" width="110" height="20" as="geometry" />
        </mxCell>
        <mxCell id="w-taxXMvqzNIHzTgpBOw-113" value="" style="group" vertex="1" connectable="0" parent="1">
          <mxGeometry x="180" y="490" width="110" height="20" as="geometry" />
        </mxCell>
        <mxCell id="w-taxXMvqzNIHzTgpBOw-114" value="" style="endArrow=classic;html=1;rounded=0;exitX=1.2;exitY=0.025;exitDx=0;exitDy=0;exitPerimeter=0;" edge="1" parent="w-taxXMvqzNIHzTgpBOw-113">
          <mxGeometry width="50" height="50" relative="1" as="geometry">
            <mxPoint y="19.333333333333332" as="sourcePoint" />
            <mxPoint x="110.00000000000001" y="19.333333333333332" as="targetPoint" />
          </mxGeometry>
        </mxCell>
        <mxCell id="w-taxXMvqzNIHzTgpBOw-115" value="Запрос" style="text;html=1;align=center;verticalAlign=middle;whiteSpace=wrap;rounded=0;" vertex="1" parent="w-taxXMvqzNIHzTgpBOw-113">
          <mxGeometry x="8.8" width="93.0512" height="20" as="geometry" />
        </mxCell>
        <mxCell id="w-taxXMvqzNIHzTgpBOw-116" value="" style="endArrow=none;html=1;rounded=0;endFill=0;startArrow=classic;startFill=1;" edge="1" parent="1">
          <mxGeometry width="50" height="50" relative="1" as="geometry">
            <mxPoint x="180" y="535" as="sourcePoint" />
            <mxPoint x="290" y="535" as="targetPoint" />
          </mxGeometry>
        </mxCell>
        <mxCell id="w-taxXMvqzNIHzTgpBOw-117" value="Выборка" style="text;html=1;align=center;verticalAlign=middle;whiteSpace=wrap;rounded=0;" vertex="1" parent="1">
          <mxGeometry x="180" y="520" width="118.43" height="10" as="geometry" />
        </mxCell>
        <mxCell id="w-taxXMvqzNIHzTgpBOw-118" value="" style="rounded=0;whiteSpace=wrap;html=1;" vertex="1" parent="1">
          <mxGeometry x="292.5" y="490" width="15" height="60" as="geometry" />
        </mxCell>
        <mxCell id="w-taxXMvqzNIHzTgpBOw-24" value="" style="endArrow=classic;html=1;rounded=0;exitX=1.2;exitY=0.025;exitDx=0;exitDy=0;exitPerimeter=0;" edge="1" parent="1">
          <mxGeometry width="50" height="50" relative="1" as="geometry">
            <mxPoint x="60.63" y="589.9966666666667" as="sourcePoint" />
            <mxPoint x="160" y="590" as="targetPoint" />
          </mxGeometry>
        </mxCell>
        <mxCell id="w-taxXMvqzNIHzTgpBOw-58" value="" style="endArrow=none;html=1;rounded=0;exitX=1.172;exitY=0.269;exitDx=0;exitDy=0;exitPerimeter=0;endFill=0;startArrow=classic;startFill=1;" edge="1" parent="1">
          <mxGeometry width="50" height="50" relative="1" as="geometry">
            <mxPoint x="62.59" y="549" as="sourcePoint" />
            <mxPoint x="162.59" y="549" as="targetPoint" />
            <Array as="points">
              <mxPoint x="129.59" y="549.3409999999999" />
            </Array>
          </mxGeometry>
        </mxCell>
        <mxCell id="w-taxXMvqzNIHzTgpBOw-57" value="Отфильтрованный реестр" style="text;html=1;align=center;verticalAlign=middle;whiteSpace=wrap;rounded=0;" vertex="1" parent="1">
          <mxGeometry x="62.5" y="520" width="105" height="21" as="geometry" />
        </mxCell>
        <mxCell id="w-taxXMvqzNIHzTgpBOw-119" value="" style="endArrow=none;dashed=1;html=1;dashPattern=1 3;strokeWidth=2;rounded=0;entryX=0.5;entryY=1;entryDx=0;entryDy=0;" edge="1" parent="1" target="w-taxXMvqzNIHzTgpBOw-59">
          <mxGeometry width="50" height="50" relative="1" as="geometry">
            <mxPoint x="640" y="630" as="sourcePoint" />
            <mxPoint x="640" y="110" as="targetPoint" />
          </mxGeometry>
        </mxCell>
        <mxCell id="w-taxXMvqzNIHzTgpBOw-59" value="" style="rounded=0;whiteSpace=wrap;html=1;" vertex="1" parent="1">
          <mxGeometry x="632.5" y="600" width="15" height="70" as="geometry" />
        </mxCell>
        <mxCell id="w-taxXMvqzNIHzTgpBOw-121" value="" style="group" vertex="1" connectable="0" parent="1">
          <mxGeometry x="647.5" y="600" width="102.5" height="20" as="geometry" />
        </mxCell>
        <mxCell id="w-taxXMvqzNIHzTgpBOw-122" value="" style="endArrow=classic;html=1;rounded=0;exitX=1.2;exitY=0.025;exitDx=0;exitDy=0;exitPerimeter=0;" edge="1" parent="w-taxXMvqzNIHzTgpBOw-121">
          <mxGeometry width="50" height="50" relative="1" as="geometry">
            <mxPoint y="19.333333333333332" as="sourcePoint" />
            <mxPoint x="102.5" y="19.333333333333332" as="targetPoint" />
          </mxGeometry>
        </mxCell>
        <mxCell id="w-taxXMvqzNIHzTgpBOw-123" value="Запрос" style="text;html=1;align=center;verticalAlign=middle;whiteSpace=wrap;rounded=0;" vertex="1" parent="w-taxXMvqzNIHzTgpBOw-121">
          <mxGeometry x="8.2" width="86.70679999999999" height="20" as="geometry" />
        </mxCell>
        <mxCell id="w-taxXMvqzNIHzTgpBOw-124" value="" style="endArrow=none;html=1;rounded=0;exitX=1.2;exitY=0.025;exitDx=0;exitDy=0;exitPerimeter=0;endFill=0;startArrow=classic;startFill=1;" edge="1" parent="1">
          <mxGeometry width="50" height="50" relative="1" as="geometry">
            <mxPoint x="650" y="645" as="sourcePoint" />
            <mxPoint x="745" y="645" as="targetPoint" />
          </mxGeometry>
        </mxCell>
        <mxCell id="w-taxXMvqzNIHzTgpBOw-125" value="Выборка" style="text;html=1;align=center;verticalAlign=middle;whiteSpace=wrap;rounded=0;" vertex="1" parent="1">
          <mxGeometry x="640" y="630" width="118.43" height="10" as="geometry" />
        </mxCell>
        <mxCell id="w-taxXMvqzNIHzTgpBOw-126" value="" style="rounded=0;whiteSpace=wrap;html=1;" vertex="1" parent="1">
          <mxGeometry x="751.25" y="605" width="17.5" height="55" as="geometry" />
        </mxCell>
        <mxCell id="w-taxXMvqzNIHzTgpBOw-128" value="Получить список кодов" style="text;html=1;align=center;verticalAlign=middle;whiteSpace=wrap;rounded=0;" vertex="1" parent="1">
          <mxGeometry x="60.09" y="720" width="102.5" height="10" as="geometry" />
        </mxCell>
        <mxCell id="w-taxXMvqzNIHzTgpBOw-129" value="" style="endArrow=classic;html=1;rounded=0;exitX=1.172;exitY=0.269;exitDx=0;exitDy=0;exitPerimeter=0;endFill=1;startArrow=none;startFill=0;" edge="1" parent="1">
          <mxGeometry width="50" height="50" relative="1" as="geometry">
            <mxPoint x="60" y="740" as="sourcePoint" />
            <mxPoint x="160" y="740" as="targetPoint" />
            <Array as="points">
              <mxPoint x="127" y="740.3409999999999" />
            </Array>
          </mxGeometry>
        </mxCell>
        <mxCell id="w-taxXMvqzNIHzTgpBOw-131" value="" style="endArrow=none;dashed=1;html=1;dashPattern=1 3;strokeWidth=2;rounded=0;entryX=0.5;entryY=1;entryDx=0;entryDy=0;" edge="1" parent="1" source="w-taxXMvqzNIHzTgpBOw-138" target="w-taxXMvqzNIHzTgpBOw-130">
          <mxGeometry width="50" height="50" relative="1" as="geometry">
            <mxPoint x="300" y="1070" as="sourcePoint" />
            <mxPoint x="300" y="420" as="targetPoint" />
          </mxGeometry>
        </mxCell>
        <mxCell id="w-taxXMvqzNIHzTgpBOw-130" value="" style="rounded=0;whiteSpace=wrap;html=1;" vertex="1" parent="1">
          <mxGeometry x="292.5" y="750" width="15" height="40" as="geometry" />
        </mxCell>
        <mxCell id="w-taxXMvqzNIHzTgpBOw-132" value="" style="group" vertex="1" connectable="0" parent="1">
          <mxGeometry x="180" y="740" width="110" height="20" as="geometry" />
        </mxCell>
        <mxCell id="w-taxXMvqzNIHzTgpBOw-133" value="" style="endArrow=classic;html=1;rounded=0;exitX=1.2;exitY=0.025;exitDx=0;exitDy=0;exitPerimeter=0;" edge="1" parent="w-taxXMvqzNIHzTgpBOw-132">
          <mxGeometry width="50" height="50" relative="1" as="geometry">
            <mxPoint y="19.333333333333332" as="sourcePoint" />
            <mxPoint x="110" y="19.333333333333332" as="targetPoint" />
          </mxGeometry>
        </mxCell>
        <mxCell id="w-taxXMvqzNIHzTgpBOw-134" value="Запрос" style="text;html=1;align=center;verticalAlign=middle;whiteSpace=wrap;rounded=0;" vertex="1" parent="w-taxXMvqzNIHzTgpBOw-132">
          <mxGeometry x="8.799999999999999" width="93.0512" height="20" as="geometry" />
        </mxCell>
        <mxCell id="w-taxXMvqzNIHzTgpBOw-135" value="" style="endArrow=none;html=1;rounded=0;exitX=1.2;exitY=0.025;exitDx=0;exitDy=0;exitPerimeter=0;endFill=0;startArrow=classic;startFill=1;" edge="1" parent="1">
          <mxGeometry width="50" height="50" relative="1" as="geometry">
            <mxPoint x="182.5" y="785" as="sourcePoint" />
            <mxPoint x="290" y="785" as="targetPoint" />
          </mxGeometry>
        </mxCell>
        <mxCell id="w-taxXMvqzNIHzTgpBOw-136" value="Выборка" style="text;html=1;align=center;verticalAlign=middle;whiteSpace=wrap;rounded=0;" vertex="1" parent="1">
          <mxGeometry x="175.77999999999997" y="770" width="118.43" height="10" as="geometry" />
        </mxCell>
        <mxCell id="w-taxXMvqzNIHzTgpBOw-74" value="" style="endArrow=classic;html=1;rounded=0;exitX=1.2;exitY=0.025;exitDx=0;exitDy=0;exitPerimeter=0;" edge="1" parent="1">
          <mxGeometry width="50" height="50" relative="1" as="geometry">
            <mxPoint x="60" y="860.0022222222223" as="sourcePoint" />
            <mxPoint x="162.5" y="860.0022222222223" as="targetPoint" />
          </mxGeometry>
        </mxCell>
        <mxCell id="w-taxXMvqzNIHzTgpBOw-72" value="Применить зону и код к выборке" style="text;html=1;align=center;verticalAlign=middle;whiteSpace=wrap;rounded=0;" vertex="1" parent="1">
          <mxGeometry x="58.75" y="856.67" width="102.5" height="43.33" as="geometry" />
        </mxCell>
        <mxCell id="w-taxXMvqzNIHzTgpBOw-139" value="" style="endArrow=none;dashed=1;html=1;dashPattern=1 3;strokeWidth=2;rounded=0;entryX=0.5;entryY=1;entryDx=0;entryDy=0;" edge="1" parent="1" target="w-taxXMvqzNIHzTgpBOw-138">
          <mxGeometry width="50" height="50" relative="1" as="geometry">
            <mxPoint x="300" y="1030" as="sourcePoint" />
            <mxPoint x="300" y="790" as="targetPoint" />
          </mxGeometry>
        </mxCell>
        <mxCell id="w-taxXMvqzNIHzTgpBOw-138" value="" style="rounded=0;whiteSpace=wrap;html=1;" vertex="1" parent="1">
          <mxGeometry x="292.5" y="890" width="15" height="60" as="geometry" />
        </mxCell>
        <mxCell id="w-taxXMvqzNIHzTgpBOw-141" value="" style="endArrow=classic;html=1;rounded=0;" edge="1" parent="1">
          <mxGeometry width="50" height="50" relative="1" as="geometry">
            <mxPoint x="180" y="910" as="sourcePoint" />
            <mxPoint x="290" y="910" as="targetPoint" />
          </mxGeometry>
        </mxCell>
        <mxCell id="w-taxXMvqzNIHzTgpBOw-143" value="Успешно" style="text;html=1;align=center;verticalAlign=middle;whiteSpace=wrap;rounded=0;" vertex="1" parent="1">
          <mxGeometry x="57.5" y="940" width="102.5" height="20" as="geometry" />
        </mxCell>
        <mxCell id="w-taxXMvqzNIHzTgpBOw-144" value="" style="endArrow=classic;html=1;rounded=0;" edge="1" parent="1">
          <mxGeometry width="50" height="50" relative="1" as="geometry">
            <mxPoint x="161.25" y="960" as="sourcePoint" />
            <mxPoint x="61.25" y="960" as="targetPoint" />
          </mxGeometry>
        </mxCell>
      </root>
    </mxGraphModel>
  </diagram>
</mxfile>
